<svg width="1066" height="289" viewBox="0 0 1066 289" fill="none" xmlns="http://www.w3.org/2000/svg">
<path fill-rule="evenodd" clip-rule="evenodd" d="M60.0811 77.5651C75.1592 58.5484 96.2163 45.1797 119.841 39.6249C143.466 34.07 168.274 36.6545 190.246 46.9595C212.219 57.2645 230.068 74.6864 240.903 96.4026C243.692 101.994 241.421 108.788 235.83 111.578C230.238 114.367 223.444 112.096 220.655 106.505C212.096 89.3498 197.995 75.5872 180.638 67.4466C163.28 59.306 143.683 57.2644 125.02 61.6525C106.358 66.0406 89.7233 76.6014 77.8122 91.6238C65.9011 106.646 59.411 125.25 59.3935 144.422C59.3759 163.593 65.8319 182.209 77.7155 197.254C89.5991 212.298 106.214 222.889 124.869 227.311C143.523 231.734 163.124 229.728 180.497 221.619C197.869 213.51 211.995 199.774 220.585 182.634C223.385 177.048 230.183 174.789 235.769 177.589C241.356 180.389 243.614 187.187 240.815 192.774C229.94 214.47 212.059 231.859 190.068 242.124C168.076 252.388 143.263 254.927 119.649 249.329C96.0345 243.731 75.0019 230.324 59.9587 211.28C44.9155 192.236 36.7429 168.67 36.7652 144.401C36.7874 120.132 45.003 96.5817 60.0811 77.5651Z" fill="white"/>
<path fill-rule="evenodd" clip-rule="evenodd" d="M80.1571 98.5792C89.7618 85.1484 103.31 75.0414 118.921 69.6616C134.532 64.2817 151.43 63.8959 167.27 68.5578C183.11 73.2197 197.105 82.6979 207.313 95.6765C211.104 100.497 210.27 107.478 205.45 111.269C200.629 115.061 193.648 114.226 189.857 109.406C182.5 100.053 172.415 93.2226 161 89.8631C149.585 86.5035 137.407 86.7815 126.157 90.6584C114.907 94.5354 105.144 101.819 98.2219 111.498C91.3003 121.177 87.564 132.771 87.5319 144.67C87.4998 156.569 91.1735 168.183 98.0428 177.899C104.912 187.615 114.636 194.951 125.865 198.889C137.094 202.826 149.27 203.17 160.703 199.872C172.136 196.574 182.258 189.798 189.665 180.485C193.482 175.685 200.468 174.888 205.268 178.706C210.068 182.523 210.864 189.509 207.047 194.309C196.769 207.232 182.723 216.634 166.858 221.211C150.993 225.787 134.097 225.31 118.516 219.846C102.934 214.382 89.4407 204.202 79.9086 190.72C70.3764 177.237 65.2787 161.122 65.3232 144.61C65.3678 128.098 70.5523 112.01 80.1571 98.5792Z" fill="#1BD49C"/>
<ellipse cx="144.561" cy="144.596" rx="50.1488" ry="50.9577" fill="white"/>
<path d="M332.66 147.072C310.164 147.072 293.44 130.052 293.44 108C293.44 85.948 310.164 68.928 332.66 68.928C347.016 68.928 359.744 76.476 366.108 87.872L346.72 99.12C344.204 93.94 338.876 90.832 332.364 90.832C322.744 90.832 315.64 97.788 315.64 108C315.64 118.212 322.744 125.168 332.364 125.168C338.876 125.168 344.352 122.06 346.72 116.88L366.108 127.98C359.744 139.524 347.164 147.072 332.66 147.072ZM418.406 68.928C433.354 68.928 446.082 79.584 446.082 99.564V145H423.882V102.82C423.882 93.644 418.11 89.352 411.006 89.352C402.866 89.352 397.242 94.088 397.242 104.596V145H375.042V41.4H397.242V77.956C401.238 72.48 408.638 68.928 418.406 68.928ZM515.052 71H537.252V145H515.052V138.044C510.168 143.668 502.916 147.072 493 147.072C473.612 147.072 457.628 130.052 457.628 108C457.628 85.948 473.612 68.928 493 68.928C502.916 68.928 510.168 72.332 515.052 77.956V71ZM497.44 126.056C507.652 126.056 515.052 119.1 515.052 108C515.052 96.9 507.652 89.944 497.44 89.944C487.228 89.944 479.828 96.9 479.828 108C479.828 119.1 487.228 126.056 497.44 126.056ZM564.638 64.488C557.386 64.488 551.318 58.42 551.318 51.168C551.318 43.916 557.386 37.848 564.638 37.848C571.89 37.848 577.958 43.916 577.958 51.168C577.958 58.42 571.89 64.488 564.638 64.488ZM553.538 145V71H575.738V145H553.538ZM635.348 68.928C650.296 68.928 663.024 79.584 663.024 99.564V145H640.824V102.82C640.824 93.644 635.052 89.352 627.948 89.352C619.808 89.352 614.184 94.088 614.184 104.596V145H591.984V71H614.184V77.956C618.18 72.48 625.58 68.928 635.348 68.928ZM699.285 92.608C699.285 101.044 735.693 95.42 735.693 122.8C735.693 139.82 720.893 147.072 704.909 147.072C690.109 147.072 678.861 141.448 673.089 129.46L692.329 118.508C694.253 124.132 698.397 127.24 704.909 127.24C710.237 127.24 712.901 125.612 712.901 122.652C712.901 114.512 676.493 118.804 676.493 93.2C676.493 77.068 690.109 68.928 705.501 68.928C717.489 68.928 728.145 74.256 734.361 84.764L715.417 94.976C713.345 91.128 710.385 88.464 705.501 88.464C701.653 88.464 699.285 89.944 699.285 92.608ZM781.574 147.072C759.078 147.072 742.354 130.052 742.354 108C742.354 85.948 759.078 68.928 781.574 68.928C795.93 68.928 808.658 76.476 815.022 87.872L795.634 99.12C793.118 93.94 787.79 90.832 781.278 90.832C771.658 90.832 764.554 97.788 764.554 108C764.554 118.212 771.658 125.168 781.278 125.168C787.79 125.168 793.266 122.06 795.634 116.88L815.022 127.98C808.658 139.524 796.078 147.072 781.574 147.072ZM858.031 147.072C836.275 147.072 818.811 130.052 818.811 108C818.811 85.948 836.275 68.928 858.031 68.928C879.787 68.928 897.251 85.948 897.251 108C897.251 130.052 879.787 147.072 858.031 147.072ZM858.031 125.464C867.651 125.464 875.051 118.508 875.051 108C875.051 97.492 867.651 90.536 858.031 90.536C848.411 90.536 841.011 97.492 841.011 108C841.011 118.508 848.411 125.464 858.031 125.464ZM932.008 84.172C934.968 74.256 944.884 69.52 954.208 69.52V94.68C945.032 93.2 932.008 96.9 932.008 111.552V145H909.808V71H932.008V84.172ZM982.249 116.88C985.061 124.576 991.869 127.24 1000.01 127.24C1006.08 127.24 1011.26 124.872 1014.22 121.616L1031.98 131.828C1024.73 141.892 1013.77 147.072 999.713 147.072C974.405 147.072 958.717 130.052 958.717 108C958.717 85.948 974.701 68.928 998.085 68.928C1019.69 68.928 1035.68 85.652 1035.68 108C1035.68 111.108 1035.38 114.068 1034.79 116.88H982.249ZM981.805 100.304H1013.63C1011.26 91.72 1004.6 88.612 997.937 88.612C989.501 88.612 983.877 92.756 981.805 100.304ZM296.7 260V187H301.7V260H296.7ZM361.11 210H366.21V260H361.11V248.7C356.91 256.2 349.21 261.1 339.61 261.1C325.41 261.1 313.71 249.8 313.71 235C313.71 220.2 325.41 208.9 339.61 208.9C349.21 208.9 356.91 213.8 361.11 221.3V210ZM340.01 256.3C351.91 256.3 361.11 246.9 361.11 235C361.11 223.1 351.91 213.7 340.01 213.7C328.11 213.7 318.81 223.1 318.81 235C318.81 246.9 328.11 256.3 340.01 256.3ZM408.063 208.9C422.363 208.9 433.963 220.2 433.963 235C433.963 249.8 422.363 261.1 408.063 261.1C398.363 261.1 390.663 256.1 386.563 248.4V260H381.563V190H386.563V221.6C390.663 213.9 398.363 208.9 408.063 208.9ZM407.763 256.3C419.663 256.3 428.963 246.9 428.963 235C428.963 223.1 419.663 213.7 407.763 213.7C395.863 213.7 386.563 223.1 386.563 235C386.563 246.9 395.863 256.3 407.763 256.3ZM448.44 223.1C448.44 236.5 478.74 228.6 478.74 246.9C478.74 255.1 471.54 261.1 460.84 261.1C450.84 261.1 444.24 256.4 441.84 250L446.14 247.5C447.94 252.9 453.34 256.3 460.84 256.3C467.84 256.3 473.74 253.2 473.74 246.9C473.74 233.3 443.44 241.1 443.44 223.1C443.44 215.2 450.24 208.9 460.44 208.9C468.54 208.9 474.74 212.8 477.44 218.9L473.24 221.3C471.14 216.1 465.94 213.7 460.44 213.7C453.94 213.7 448.44 217.1 448.44 223.1Z" fill="white"/>
</svg>
